<svg id="Layer_1" data-name="Layer 1" xmlns="http://www.w3.org/2000/svg" viewBox="0 0 432 432"><defs><style>.cls-1{fill:#fff;stroke-width:4.75px;}.cls-1,.cls-7{stroke:#fdc56b;}.cls-1,.cls-2,.cls-3,.cls-5,.cls-6,.cls-7{stroke-linecap:round;stroke-linejoin:round;}.cls-2,.cls-3,.cls-4,.cls-5,.cls-6,.cls-7{fill:none;}.cls-2,.cls-3,.cls-4,.cls-5,.cls-6{stroke:#8eb9ae;stroke-width:1.02px;}.cls-3{stroke-dasharray:4.16 4.16;}.cls-4{stroke-miterlimit:10;stroke-dasharray:3.59;}.cls-5{stroke-dasharray:2.7 2.7;}.cls-6{stroke-dasharray:2.72;}.cls-7{stroke-width:2.04px;}.cls-8{font-size:44.52px;fill:#333;font-family:OpenSans-Bold, Open Sans;font-weight:700;}</style></defs><title>Artboard 1 copy</title><circle class="cls-1" cx="214.54" cy="216" r="135.35"/><line class="cls-2" x1="132.01" y1="206.68" x2="134.05" y2="206.68"/><line class="cls-3" x1="138.21" y1="206.68" x2="310.67" y2="206.68"/><line class="cls-2" x1="312.75" y1="206.68" x2="314.79" y2="206.68"/><line class="cls-2" x1="132.01" y1="222.44" x2="134.05" y2="222.44"/><line class="cls-3" x1="138.21" y1="222.44" x2="310.67" y2="222.44"/><line class="cls-2" x1="312.75" y1="222.44" x2="314.79" y2="222.44"/><line class="cls-2" x1="132.01" y1="246.83" x2="134.05" y2="246.83"/><line class="cls-3" x1="138.21" y1="246.83" x2="310.67" y2="246.83"/><line class="cls-2" x1="312.75" y1="246.83" x2="314.79" y2="246.83"/><line class="cls-4" x1="152.7" y1="288.17" x2="293.68" y2="288.17"/><line class="cls-4" x1="152.7" y1="279.25" x2="152.7" y2="297.1"/><line class="cls-4" x1="293.68" y1="279.25" x2="293.68" y2="297.1"/><line class="cls-2" x1="113.38" y1="165.69" x2="113.38" y2="167.05"/><line class="cls-5" x1="113.38" y1="169.76" x2="113.38" y2="244.12"/><line class="cls-2" x1="113.38" y1="245.47" x2="113.38" y2="246.83"/><line class="cls-6" x1="122.64" y1="165.69" x2="104.79" y2="165.69"/><line class="cls-6" x1="122.72" y1="246.83" x2="104.88" y2="246.83"/><line class="cls-7" x1="154.25" y1="144.41" x2="154.25" y2="267.92"/><line class="cls-7" x1="314.79" y1="164.48" x2="132.8" y2="164.48"/><line class="cls-7" x1="223.19" y1="144.41" x2="223.19" y2="267.92"/><line class="cls-7" x1="293.68" y1="144.41" x2="293.68" y2="267.92"/><text class="cls-8" transform="translate(195.66 221.99)">Ag</text></svg>