<svg id="Layer_1" data-name="Layer 1" xmlns="http://www.w3.org/2000/svg" viewBox="0 0 432 432"><defs><style>.cls-1,.cls-3{fill:#fff;}.cls-1{stroke:#fdc56b;stroke-width:5.07px;}.cls-1,.cls-6{stroke-linecap:round;stroke-linejoin:round;}.cls-2{fill:#fdc56b;}.cls-4{opacity:0.22;}.cls-5,.cls-6{fill:none;}.cls-5{stroke:#333;stroke-miterlimit:10;stroke-width:1.89px;}.cls-6{stroke:#8eb9ae;stroke-width:2.53px;}</style></defs><title>Artboard 1 copy 2</title><circle class="cls-1" cx="219.81" cy="224.05" r="144.46"/><rect class="cls-2" x="148.21" y="137.35" width="145.47" height="177.27" rx="11.33" ry="11.33"/><rect class="cls-3" x="169.07" y="201.41" width="104.89" height="9.88"/><rect class="cls-3" x="169.07" y="226.29" width="104.89" height="9.88"/><rect class="cls-3" x="169.07" y="251.16" width="104.89" height="9.88"/><rect class="cls-3" x="169.07" y="276.04" width="55.15" height="9.88"/><polygon class="cls-4" points="254.13 137.35 254.13 184.77 293.67 184.77 254.13 137.35"/><path class="cls-3" d="M271.47,135.08h13.71s9.23,4.65,9.23,13.86v36.93l-40.28-48.52Z"/><circle class="cls-5" cx="182.62" cy="166.69" r="19.17"/><path class="cls-6" d="M175,162.39s2-2.92,4.45,0"/><path class="cls-6" d="M185.92,162.39s2-2.92,4.45,0"/><path class="cls-6" d="M172.52,171.2c0,.47,10.67,10.71,20.33-.16"/></svg>